Coordinates
version=1
nRows=49
nColumns=12
inDegrees=yes

Units are S.I. units (second, meters, Newtons, ...)
Angles are in degrees

endheader
time	SC_y	SC_z	SC_x	AC_y	AC_z	AC_x	GH_y	GH_z	GH_yy	EL_x	PS_y
       0.0              -26.71          29.24          60.69          46.19          8.728          5.609         -167.6          4.393          48.05           43.0          68.26
  0.008408              -26.71          29.23          60.68          46.19          8.728          5.607         -167.6          4.395          48.05          42.99          68.27
   0.01682              -26.71          29.23          60.68           46.2          8.728          5.606         -167.5          4.396          48.06          42.99          68.28
   0.02522              -26.71          29.23          60.67           46.2          8.728          5.605         -167.5          4.398          48.06          42.98          68.29
   0.03363              -26.71          29.23          60.66           46.2          8.728          5.604         -167.5          4.399          48.06          42.98           68.3
   0.04204              -26.71          29.23          60.66           46.2          8.728          5.602         -167.4          4.401          48.07          42.97          68.32
   0.05045              -26.71          29.22          60.65           46.2          8.728          5.601         -167.4          4.403          48.07          42.97          68.33
   0.05886              -26.71          29.22          60.64           46.2          8.728          5.599         -167.3          4.405          48.08          42.96          68.35
   0.06726              -26.71          29.22          60.63          46.21          8.728          5.597         -167.3          4.408          48.08          42.95          68.37
   0.07567              -26.71          29.22          60.62          46.21          8.728          5.595         -167.3           4.41          48.09          42.95          68.38
   0.08408              -26.71          29.21          60.62          46.21          8.728          5.593         -167.2          4.413          48.09          42.94           68.4
   0.09249              -26.71          29.21          60.61          46.21          8.728          5.591         -167.1          4.416           48.1          42.93          68.42
    0.1009              -26.71          29.21          60.59          46.21          8.728          5.589         -167.1          4.419           48.1          42.92          68.45
    0.1093              -26.72          29.21          60.58          46.22          8.728          5.586         -167.0          4.422          48.11          42.91          68.47
    0.1177              -26.72           29.2          60.57          46.22          8.728          5.583         -166.9          4.425          48.12           42.9           68.5
    0.1261              -26.72           29.2          60.56          46.22          8.728           5.58         -166.9          4.429          48.13          42.89          68.53
    0.1345              -26.72          29.19          60.54          46.23          8.728          5.577         -166.8          4.433          48.14          42.88          68.56
    0.1429              -26.72          29.19          60.52          46.23          8.728          5.573         -166.7          4.438          48.15          42.87          68.59
    0.1513              -26.72          29.18          60.51          46.23          8.728           5.57         -166.6          4.443          48.16          42.85          68.63
    0.1598              -26.72          29.18          60.49          46.24          8.728          5.565         -166.5          4.448          48.17          42.84          68.67
    0.1682              -26.72          29.17          60.47          46.24          8.728          5.561         -166.3          4.454          48.18          42.82          68.72
    0.1766              -26.73          29.16          60.44          46.25          8.728          5.555         -166.2          4.461           48.2           42.8          68.76
     0.185              -26.73          29.16          60.42          46.25          8.728           5.55         -166.1          4.468          48.21          42.78          68.82
    0.1934              -26.73          29.15          60.39          46.26          8.728          5.543         -165.9          4.476          48.23          42.76          68.88
    0.2018              -26.73          29.14          60.36          46.27          8.728          5.536         -165.7          4.485          48.25          42.73          68.95
    0.2102              -26.73          29.13          60.32          46.28          8.728          5.529         -165.5          4.495          48.27           42.7          69.02
    0.2186              -26.74          29.12          60.28          46.29          8.728           5.52         -165.3          4.506          48.29          42.67           69.1
     0.227              -26.74           29.1          60.23           46.3          8.728           5.51         -165.0          4.519          48.32          42.63           69.2
    0.2354              -26.74          29.09          60.18          46.31          8.728          5.499         -164.7          4.533          48.35          42.59          69.31
    0.2438              -26.75          29.07          60.13          46.32          8.728          5.486         -164.4          4.549          48.39          42.55          69.43
    0.2522              -26.75          29.05          60.06          46.34          8.728          5.472         -164.0          4.568          48.43          42.49          69.56
    0.2607              -26.76          29.03          59.98          46.35          8.728          5.455         -163.6          4.589          48.47          42.43          69.72
    0.2691              -26.77           29.0           59.9          46.37          8.728          5.436         -163.1          4.613          48.52          42.36          69.91
    0.2775              -26.77          28.97           59.8           46.4          8.727          5.414         -162.5          4.642          48.59          42.28          70.12
    0.2859              -26.78          28.94          59.68          46.42          8.727          5.388         -161.8          4.675          48.66          42.19          70.37
    0.2943              -26.79           28.9          59.54          46.45          8.727          5.357         -161.0          4.714          48.74          42.07          70.66
    0.3027               -26.8          28.85          59.37          46.49          8.727          5.321         -160.1          4.761          48.84          41.94          71.01
    0.3111              -26.82          28.79          59.17          46.54          8.727          5.277         -158.9          4.817          48.96          41.78          71.42
    0.3195              -26.84          28.72          58.93          46.59          8.727          5.224         -157.5          4.884          49.11          41.58          71.93
    0.3279              -26.86          28.63          58.63          46.66          8.727           5.16         -155.8          4.966          49.29          41.35          72.55
    0.3363              -26.88          28.52          58.27          46.74          8.727           5.08         -153.8          5.068          49.51          41.05          73.31
    0.3447              -26.92          28.39          57.81          46.84          8.727          4.981         -151.2          5.195          49.78          40.69          74.26
    0.3531              -26.96          28.22          57.24          46.97          8.727          4.856         -147.9          5.355          50.12          40.23          75.45
    0.3615              -27.01          28.01          56.51          47.14          8.727          4.697         -143.7          5.558          50.56          39.64          76.97
      0.37              -27.08          27.73          55.58          47.35          8.726          4.494         -138.4          5.818          51.12           38.9          78.92
    0.3784              -27.17          27.38          54.39          47.62          8.726          4.233         -131.5          6.152          51.84          37.93          81.42
    0.3868              -27.28          26.93          52.86          47.97          8.726          3.899         -122.8          6.578          52.76          36.71           84.6
    0.3952              -27.42          26.37          50.94           48.4          8.725           3.48         -111.8          7.114          53.92          35.17          88.62
    0.4036              -27.59          25.68           48.6          48.93          8.725          2.969         -98.39          7.768          55.33          33.29           93.5
